<?xml version="1.0" encoding="utf-8"?>
<!-- Generator: Adobe Illustrator 16.0.0, SVG Export Plug-In . SVG Version: 6.00 Build 0)  -->
<!DOCTYPE svg PUBLIC "-//W3C//DTD SVG 1.1//EN" "http://www.w3.org/Graphics/SVG/1.1/DTD/svg11.dtd">
<svg version="1.1" id="Layer_1" xmlns="http://www.w3.org/2000/svg" xmlns:xlink="http://www.w3.org/1999/xlink" x="0px" y="0px"
	 width="128px" height="128px" viewBox="0 0 128 128" enable-background="new 0 0 128 128" xml:space="preserve">
<g>
	<g>
		<path fill="#282D33" d="M118.506,104.114H19.471V36.059h99.035V104.114z M23.457,100.127h91.062V40.046H23.457V100.127z"/>
	</g>
	<g>
		<polygon fill="#282D33" points="83.33,31.131 79.343,31.131 79.343,27.873 58.632,27.873 58.632,31.131 54.645,31.131 
			54.645,23.886 83.33,23.886 		"/>
	</g>
	<g>
		<g>
			<polygon fill="#282D33" points="21.245,79.216 19.193,79.216 0,69.472 19.194,59.726 21.246,59.726 21.246,63.713 20.148,63.713 
				8.807,69.472 20.147,75.229 21.245,75.229 			"/>
		</g>
		<g>
			<path fill="#282D33" d="M23.053,63.299l92.006,0.001v12.341H23.054L23.053,63.299 M19.116,59.363v20.214h99.879V59.363H19.116
				L19.116,59.363z"/>
		</g>
		<g>
			<rect x="23.357" y="67.476" fill="#282D33" width="94.178" height="3.987"/>
		</g>
		<g>
			<path fill="#282D33" d="M118.351,79.292v-3.987l5.66-0.001V63.635l-5.66,0.001v-3.987l6.263-0.001
				c0.852,0,1.663,0.344,2.286,0.968c0.7,0.701,1.101,1.706,1.099,2.756L128,75.579c0,2.047-1.521,3.712-3.389,3.712L118.351,79.292
				z"/>
		</g>
	</g>
</g>
</svg>
