<?xml version="1.0" encoding="utf-8"?>
<!-- Generator: Adobe Illustrator 24.2.1, SVG Export Plug-In . SVG Version: 6.00 Build 0)  -->
<svg version="1.1" id="icons" xmlns="http://www.w3.org/2000/svg" xmlns:xlink="http://www.w3.org/1999/xlink" x="0px" y="0px"
	 viewBox="0 0 256 256" style="enable-background:new 0 0 256 256;" xml:space="preserve">
<style type="text/css">
	.st0{fill:none;stroke:#3D5A80;stroke-width:7;stroke-linecap:round;stroke-miterlimit:10;}
</style>
<g>
	<path class="st0" d="M59.09,52.23c-5.75,2.95-8.7,5.89-11.64,11.64c-0.58,1.14-2.2,1.14-2.78,0c-2.95-5.75-5.89-8.7-11.64-11.64
		c-1.14-0.58-1.14-2.2,0-2.78c5.75-2.95,8.7-5.89,11.64-11.64c0.58-1.14,2.2-1.14,2.78,0c2.95,5.75,5.89,8.7,11.64,11.64
		C60.23,50.04,60.23,51.65,59.09,52.23z"/>
	<path class="st0" d="M99.11,37.43c-5.75,2.95-8.7,5.89-11.64,11.64c-0.58,1.14-2.2,1.14-2.78,0c-2.95-5.75-5.89-8.7-11.64-11.64
		c-1.14-0.58-1.14-2.2,0-2.78c5.75-2.95,8.7-5.89,11.64-11.64c0.58-1.14,2.2-1.14,2.78,0c2.95,5.75,5.89,8.7,11.64,11.64
		C100.24,35.24,100.24,36.85,99.11,37.43z"/>
	<path class="st0" d="M63.39,97.74c-3.7,1.9-5.6,3.79-7.49,7.49c-0.38,0.73-1.41,0.73-1.79,0c-1.9-3.7-3.79-5.6-7.49-7.49
		c-0.73-0.38-0.73-1.41,0-1.79c3.7-1.9,5.6-3.79,7.49-7.49c0.38-0.73,1.41-0.73,1.79,0c1.9,3.7,3.79,5.6,7.49,7.49
		C64.12,96.32,64.12,97.36,63.39,97.74z"/>
	<path id="XMLID_491_" class="st0" d="M209.71,64.72c19.05-0.14,14.29,28.13,14.29,28.13H196"/>
	<path id="XMLID_488_" class="st0" d="M75,120.84v-36.5c0-10.77,8.73-19.5,19.5-19.5H210"/>
	<path id="XMLID_486_" class="st0" d="M212,64.84h-8.11c-8.78,0-15.89,7.11-15.89,15.89v40.11"/>
	<path id="XMLID_482_" class="st0" d="M199,157.84v0.44c0,17.06,8.33,33.05,22.31,42.83l3.52,2.46c0.11,0.09,0.17,0.22,0.17,0.36
		v28.74c0,0.65-0.52,1.17-1.17,1.17H39.17c-0.65,0-1.17-0.52-1.17-1.17v-28.73c0-0.15,0.07-0.29,0.19-0.37l3.16-2.29
		c13.7-9.9,21.76-25.81,21.65-42.71L63,157.84"/>
	<path id="XMLID_474_" class="st0" d="M78,179.84v-3.03c0-3.3,2.67-5.97,5.97-5.97H95"/>
	<path id="XMLID_479_" class="st0" d="M91,203.84v-3.03c0-3.3,2.67-5.97,5.97-5.97H108"/>
	<path id="XMLID_480_" class="st0" d="M122,203.84v-3.03c0-3.3,2.67-5.97,5.97-5.97H139"/>
	<path id="XMLID_481_" class="st0" d="M153,203.84v-3.03c0-3.3,2.67-5.97,5.97-5.97H170"/>
	<path id="XMLID_475_" class="st0" d="M109,179.84v-3.03c0-3.3,2.67-5.97,5.97-5.97H126"/>
	<path id="XMLID_476_" class="st0" d="M140,179.84v-3.03c0-3.3,2.67-5.97,5.97-5.97H157"/>
	<path id="XMLID_478_" class="st0" d="M171,179.84v-3.03c0-3.3,2.67-5.97,5.97-5.97H188"/>
	<path id="XMLID_483_" class="st0" d="M47.81,153.84h-6.76c-5.55,0-10.05-4.5-10.05-10.05v-9.91c0-5.55,4.5-10.05,10.05-10.05h6.76
		c0.11,0,0.19,0.09,0.19,0.19v29.62C48,153.76,47.91,153.84,47.81,153.84z"/>
	<line id="XMLID_492_" class="st0" x1="87" y1="92.84" x2="171" y2="92.84"/>
	<line id="XMLID_490_" class="st0" x1="87" y1="115.84" x2="127" y2="115.84"/>
	<line class="st0" x1="77" y1="216.84" x2="187" y2="216.84"/>
	<path id="XMLID_36_" class="st0" d="M50,133.84h157.21c1.54,0,2.79,1.25,2.79,2.79v8.42c0,1.54-1.25,2.79-2.79,2.79H168"/>
</g>
</svg>
