<svg xmlns="http://www.w3.org/2000/svg" viewBox="0 0 48 48"><defs><style>.cls-1{fill:#42a5f5;}.cls-2{fill:#424242;}</style></defs><title>Copy Writer</title><g id="Copy_Writer" data-name="Copy Writer"><path class="cls-1" d="M10,48H7V44h7v1a1,1,0,0,1-1,1H11Z"/><path class="cls-1" d="M38,48h3V44H34v1a1,1,0,0,0,1,1h2Z"/><path class="cls-1" d="M25,36H23a1,1,0,0,1,0-2h2A1,1,0,0,1,25,36Z"/><path class="cls-1" d="M25,40H23a1,1,0,0,1,0-2h2A1,1,0,0,1,25,40Z"/><path class="cls-1" d="M31,36H29a1,1,0,0,1,0-2h2A1,1,0,0,1,31,36Z"/><path class="cls-1" d="M37,36H35a1,1,0,0,1,0-2h2A1,1,0,0,1,37,36Z"/><path class="cls-1" d="M31,40H29a1,1,0,0,1,0-2h2A1,1,0,0,1,31,40Z"/><path class="cls-1" d="M37,40H35a1,1,0,0,1,0-2h2A1,1,0,0,1,37,40Z"/><path class="cls-1" d="M19,36H17a1,1,0,0,1,0-2h2A1,1,0,0,1,19,36Z"/><path class="cls-1" d="M13,36H11a1,1,0,0,1,0-2h2A1,1,0,0,1,13,36Z"/><path class="cls-1" d="M19,40H17a1,1,0,0,1,0-2h2A1,1,0,0,1,19,40Z"/><path class="cls-1" d="M13,40H11a1,1,0,0,1,0-2h2A1,1,0,0,1,13,40Z"/><path class="cls-2" d="M44,26v1H42V25a1,1,0,0,0-1-1H40V19a1,1,0,0,0-1-1H36v2h2v4H10V20h2V18H9a1,1,0,0,0-1,1v5H7a1,1,0,0,0-1,1v2H4V26a1,1,0,0,0-2,0v4a1,1,0,0,0,2,0V29H6v1.82C2.67,39.69,3,38.22,3,41a3,3,0,0,0,3,3H42a3,3,0,0,0,3-3,7.75,7.75,0,0,0-.25-2.86C41.55,29.63,42,31.43,42,29h2v1a1,1,0,0,0,2,0V26A1,1,0,0,0,44,26ZM8,26H40v4H8ZM43,41a1,1,0,0,1-1,1H6a1,1,0,0,1-1-1c0-2.34-.41-.72,2.69-9H40.31C43.41,40.28,43,38.58,43,41Z"/><path class="cls-1" d="M42,10H38V4a2,2,0,0,1,4,0Z"/><path class="cls-1" d="M15,0a3,3,0,0,0-3,3V24H36V4a4,4,0,0,1,4-4ZM26,20H16a1,1,0,0,1,0-2H26A1,1,0,0,1,26,20Zm6-4H16a1,1,0,0,1,0-2H32A1,1,0,0,1,32,16Zm0-4H16a1,1,0,0,1,0-2H32A1,1,0,0,1,32,12Zm0-4H16a1,1,0,0,1,0-2H32A1,1,0,0,1,32,8Z"/></g></svg>